<?xml version="1.0" standalone="no"?>
<!DOCTYPE svg PUBLIC "-//W3C//DTD SVG 20010904//EN"
 "http://www.w3.org/TR/2001/REC-SVG-20010904/DTD/svg10.dtd">
<svg version="1.0" xmlns="http://www.w3.org/2000/svg"
 width="250.000000pt" height="250.000000pt" viewBox="0 0 250.000000 250.000000"
 preserveAspectRatio="xMidYMid meet">
<metadata>
Created by potrace 1.11, written by Peter Selinger 2001-2013
</metadata>
<g transform="translate(0.000000,250.000000) scale(0.100000,-0.100000)"
fill="#000000" stroke="none">
<path d="M1045 1896 c-66 -41 -300 -180 -520 -311 -444 -264 -515 -307 -515
-310 0 -1 152 -3 338 -3 185 0 351 -1 367 -1 32 -1 32 -1 122 -161 11 -19 46
-77 77 -129 31 -51 56 -95 56 -96 0 -1 47 -83 105 -181 l105 -178 0 722 c0
397 -3 722 -7 721 -5 0 -62 -33 -128 -73z"/>
<path d="M1266 1257 c1 -386 2 -708 3 -714 0 -7 63 25 140 72 77 47 142 85
146 85 3 0 11 5 18 10 9 8 682 416 889 539 16 9 28 18 28 21 0 3 -177 4 -392
3 l-393 -1 -214 344 c-118 189 -217 344 -220 344 -3 0 -5 -316 -5 -703z"/>
</g>
</svg>
